Coordinates
version=1
nRows=14
nColumns=38
inDegrees=no

Units are S.I. units (second, meters, Newtons, ...)
If the header above contains a line with 'inDegrees', this indicates whether rotational values are in degrees (yes) or radians (no).

endheader
time	pelvis_tilt	pelvis_list	pelvis_rotation	pelvis_tx	pelvis_ty	pelvis_tz	hip_flexion_r	hip_adduction_r	hip_rotation_r	knee_angle_r	ankle_angle_r	subtalar_angle_r	mtp_angle_r	hip_flexion_l	hip_adduction_l	hip_rotation_l	knee_angle_l	ankle_angle_l	subtalar_angle_l	mtp_angle_l	lumbar_extension	lumbar_bending	lumbar_rotation	arm_flex_r	arm_add_r	arm_rot_r	elbow_flex_r	pro_sup_r	wrist_flex_r	wrist_dev_r	arm_flex_l	arm_add_l	arm_rot_l	elbow_flex_l	pro_sup_l	wrist_flex_l	wrist_dev_l
15	2.57071	1.41137	-0.792037	0.693951	-0.703004	0.950555	-0.199948	0.138459	-0.231604	0.277777	-0.329866	0	0	0.0873251	-0.107715	-0.0250623	0.320234	-0.310418	0	0	-0.2901	0.192564	0.283487	0.658536	-0.412039	0.114327	1.28113	1.5708	0	0	0.586725	-0.858259	0.360526	1.28512	1.5708	0	0
15.01	2.53073	1.4082	-0.756883	0.696384	-0.708231	0.951231	-0.205455	0.147901	-0.269138	0.245084	-0.347489	0	0	0.0925409	-0.117084	-0.0266649	0.314098	-0.318455	0	0	-0.293951	0.198971	0.293248	0.65807	-0.413336	0.112984	1.28877	1.5708	0	0	0.58785	-0.852063	0.356858	1.28276	1.5708	0	0
15.02	2.50774	1.41131	-0.73919	0.698877	-0.713496	0.951071	-0.202171	0.152225	-0.264982	0.229708	-0.352373	0	0	0.100404	-0.119116	-0.027841	0.308649	-0.325168	0	0	-0.294577	0.198075	0.299651	0.659443	-0.412209	0.113606	1.2948	1.5708	0	0	0.587891	-0.850143	0.353112	1.28236	1.5708	0	0
15.03	2.46797	1.41711	-0.705623	0.701339	-0.718734	0.950628	-0.196097	0.156127	-0.248648	0.210926	-0.358934	0	0	0.112088	-0.120969	-0.0302941	0.303047	-0.339873	0	0	-0.291719	0.196632	0.305906	0.660525	-0.410748	0.114549	1.30092	1.5708	0	0	0.585323	-0.847715	0.346257	1.28246	1.5708	0	0
15.04	2.45695	1.4207	-0.69776	0.703404	-0.724116	0.950423	-0.192719	0.156684	-0.249575	0.198934	-0.355388	0	0	0.11903	-0.120843	-0.0308612	0.297957	-0.341068	0	0	-0.29356	0.194677	0.308326	0.66432	-0.409093	0.118325	1.30566	1.5708	0	0	0.585079	-0.846476	0.34216	1.28095	1.5708	0	0
15.05	2.44134	1.42491	-0.684601	0.705461	-0.729387	0.950124	-0.189849	0.158707	-0.246766	0.183219	-0.356404	0	0	0.126754	-0.120913	-0.0314394	0.292217	-0.349552	0	0	-0.294052	0.191451	0.310284	0.666374	-0.407264	0.120156	1.31126	1.5708	0	0	0.58576	-0.846092	0.339339	1.28119	1.5708	0	0
15.06	2.43534	1.42812	-0.680464	0.707465	-0.734521	0.949852	-0.187283	0.159926	-0.245342	0.170875	-0.357195	0	0	0.132505	-0.120941	-0.0322828	0.286794	-0.35588	0	0	-0.295854	0.188019	0.311626	0.668773	-0.405374	0.121727	1.31614	1.5708	0	0	0.588104	-0.846069	0.338585	1.28056	1.5708	0	0
15.07	2.42678	1.43155	-0.67234	0.709317	-0.739471	0.949537	-0.184773	0.161684	-0.238195	0.157015	-0.358247	0	0	0.138851	-0.121047	-0.0325393	0.281216	-0.364671	0	0	-0.296984	0.184817	0.311449	0.669902	-0.403185	0.122046	1.3226	1.5708	0	0	0.589681	-0.845752	0.336503	1.27991	1.5708	0	0
15.08	2.4192	1.43334	-0.663879	0.710958	-0.744305	0.949347	-0.184089	0.164441	-0.234887	0.142338	-0.360918	0	0	0.144711	-0.122397	-0.0317995	0.277065	-0.37344	0	0	-0.29891	0.182947	0.310184	0.671073	-0.401552	0.122912	1.32875	1.5708	0	0	0.591906	-0.844985	0.33525	1.27903	1.5708	0	0
15.09	2.41088	1.4327	-0.652955	0.7124	-0.749038	0.949417	-0.186393	0.169074	-0.241346	0.124093	-0.368081	0	0	0.149827	-0.125735	-0.0290737	0.27468	-0.383181	0	0	-0.302265	0.183431	0.307966	0.672052	-0.400224	0.123652	1.33527	1.5708	0	0	0.594108	-0.843394	0.333578	1.27809	1.5708	0	0
15.1	2.40705	1.43184	-0.645515	0.713695	-0.75371	0.949482	-0.187328	0.172967	-0.241715	0.111242	-0.374021	0	0	0.153812	-0.128332	-0.0238704	0.271716	-0.390786	0	0	-0.305706	0.18424	0.304497	0.673561	-0.398534	0.124794	1.34066	1.5708	0	0	0.596314	-0.842184	0.332499	1.27613	1.5708	0	0
15.11	2.41063	1.43882	-0.644102	0.714891	-0.758158	0.948526	-0.182231	0.17169	-0.163798	0.10734	-0.361094	0	0	0.16487	-0.123391	-0.016903	0.27663	-0.397297	0	0	-0.303098	0.177766	0.296228	0.67404	-0.393946	0.125429	1.34554	1.5708	0	0	0.597783	-0.844114	0.331292	1.27517	1.5708	0	0
15.12	2.5193	1.46548	-0.737356	0.71515	-0.761462	0.944945	-0.141088	0.146209	-0.0537951	0.197033	-0.256041	0	0	0.183713	-0.0915218	-0.00498396	0.29421	-0.390555	0	0	-0.288098	0.147943	0.271379	0.669335	-0.383773	0.122735	1.34911	1.5708	0	0	0.608526	-0.85569	0.345532	1.2738	1.5708	0	0
15.13	2.60645	1.476	-0.80785	0.71497	-0.764929	0.943327	-0.118939	0.135404	-0.0287389	0.248128	-0.202725	0	0	0.195437	-0.075756	0.00900281	0.31249	-0.395906	0	0	-0.282573	0.13557	0.249375	0.666497	-0.376918	0.123174	1.35336	1.5708	0	0	0.613389	-0.861778	0.352296	1.27266	1.5708	0	0
